<svg width="48" height="48" viewBox="0 0 48 48" fill="none" xmlns="http://www.w3.org/2000/svg">
<path fill-rule="evenodd" clip-rule="evenodd" d="M29.4016 4C36.1856 4 40.0776 7.358 40.0776 13.208V42.28C40.0776 43.5 39.4496 44.598 38.3936 45.212C37.3416 45.828 36.0736 45.84 35.0096 45.24L23.0896 38.506L11.0596 45.254C10.5396 45.546 9.9696 45.694 9.3976 45.694C8.8076 45.694 8.2176 45.536 7.6816 45.22C6.6276 44.606 5.9996 43.508 5.9996 42.29V12.842C5.9996 7.222 9.8936 4 16.6836 4H29.4016ZM29.4016 7H16.6836C11.5856 7 8.9996 8.964 8.9996 12.842V42.29C8.9996 42.478 9.1076 42.58 9.1976 42.632C9.2876 42.688 9.4296 42.728 9.5936 42.636L22.3576 35.476C22.8136 35.222 23.3716 35.22 23.8296 35.478L36.4836 42.626C36.6496 42.722 36.7916 42.678 36.8816 42.624C36.9716 42.57 37.0776 42.468 37.0776 42.28L37.0769 12.9801C37.0617 11.2587 36.7287 7 29.4016 7ZM30.2792 17.457C31.1072 17.457 31.7792 18.129 31.7792 18.957C31.7792 19.785 31.1072 20.457 30.2792 20.457H15.6432C14.8152 20.457 14.1432 19.785 14.1432 18.957C14.1432 18.129 14.8152 17.457 15.6432 17.457H30.2792Z" fill="white"/>
</svg>
